<svg xmlns="http://www.w3.org/2000/svg" xmlns:xlink="http://www.w3.org/1999/xlink" preserveAspectRatio="xMidYMid meet" width="200" height="200" viewBox="0 0 200 200" style="width:100%;height:100%">
<defs><animateMotion repeatCount="indefinite" dur="1s" begin="0s" xlink:href="#_R_G_L_4_G_D_0_P_0_G_0_T_0" fill="freeze" keyTimes="0;0.3333333;0.4666667;1" path="M108.25 152.12 C108.25,152.12 108.25,152.12 108.25,152.12 C108.25,152.12 108.25,52.12 108.25,52.12 C108.25,52.12 108.25,52.12 108.25,52.12 " keyPoints="0;0;1;1" keySplines="0.167 0.167 0.833 0.833;0.167 0.167 0.833 0.833;0 0 0 0" calcMode="spline"/><animateMotion repeatCount="indefinite" dur="1s" begin="0s" xlink:href="#_R_G_L_4_G_D_0_P_0_G_0_T_0" fill="freeze" keyTimes="0;0.3333333;0.4666667;1" path="M108.25 152.12 C108.25,152.12 108.25,152.12 108.25,152.12 C108.25,152.12 108.25,52.12 108.25,52.12 C108.25,52.12 108.25,52.12 108.25,52.12 " keyPoints="0;0;1;1" keySplines="0.167 0.167 0.833 0.833;0.167 0.167 0.833 0.833;0 0 0 0" calcMode="spline"/><animateMotion repeatCount="indefinite" dur="1s" begin="0s" xlink:href="#_R_G_L_4_G_D_0_P_0_G_0_T_0" fill="freeze" keyTimes="0;0.3333333;0.4666667;1" path="M108.25 152.12 C108.25,152.12 108.25,152.12 108.25,152.12 C108.25,152.12 108.25,52.12 108.25,52.12 C108.25,52.12 108.25,52.12 108.25,52.12 " keyPoints="0;0;1;1" keySplines="0.167 0.167 0.833 0.833;0.167 0.167 0.833 0.833;0 0 0 0" calcMode="spline"/><animate repeatCount="indefinite" dur="1s" begin="0s" xlink:href="#_R_G_L_4_G_M" fill="freeze" attributeName="opacity" from="0" to="1" keyTimes="0;0.3333333;0.3333367;1" values="0;0;1;1" keySplines="0 0 0 0;0 0 0 0;0 0 0 0" calcMode="spline"/><animateMotion repeatCount="indefinite" dur="1s" begin="0s" xlink:href="#_R_G_L_3_G_D_0_P_0_G_0_T_0" fill="freeze" keyTimes="0;0.8333333;0.9333333;1" path="M108 100 C108,100 108,100 108,100 C108,100 171.22,117.28 171.22,117.28 C171.22,117.28 171.22,117.28 171.22,117.28 " keyPoints="0;0;1;1" keySplines="0.167 0.167 0.833 0.833;0.167 0.167 0.833 0.833;0 0 0 0" calcMode="spline"/><animateMotion repeatCount="indefinite" dur="1s" begin="0s" xlink:href="#_R_G_L_3_G_D_1_P_0_G_0_T_0" fill="freeze" keyTimes="0;0.7666667;0.8666667;1" path="M108 100 C108,100 108,100 108,100 C108,100 180.82,80.57 180.82,80.57 C180.82,80.57 180.82,80.57 180.82,80.57 " keyPoints="0;0;1;1" keySplines="0.167 0.167 0.833 0.833;0.167 0.167 0.833 0.833;0 0 0 0" calcMode="spline"/><animateMotion repeatCount="indefinite" dur="1s" begin="0s" xlink:href="#_R_G_L_3_G_D_2_P_0_G_0_T_0" fill="freeze" keyTimes="0;0.7;0.8;1" path="M108 100 C108,100 108,100 108,100 C108,100 156.18,42.09 156.18,42.09 C156.18,42.09 156.18,42.09 156.18,42.09 " keyPoints="0;0;1;1" keySplines="0.167 0.167 0.833 0.833;0.167 0.167 0.833 0.833;0 0 0 0" calcMode="spline"/><animateMotion repeatCount="indefinite" dur="1s" begin="0s" xlink:href="#_R_G_L_3_G_D_3_P_0_G_0_T_0" fill="freeze" keyTimes="0;0.6333333;0.7333333;1" path="M108 100 C108,100 108,100 108,100 C108,100 117.69,17.08 117.69,17.08 C117.69,17.08 117.69,17.08 117.69,17.08 " keyPoints="0;0;1;1" keySplines="0.167 0.167 0.833 0.833;0.167 0.167 0.833 0.833;0 0 0 0" calcMode="spline"/><animateMotion repeatCount="indefinite" dur="1s" begin="0s" xlink:href="#_R_G_L_3_G_D_4_P_0_G_0_T_0" fill="freeze" keyTimes="0;0.5666667;0.6666667;1" path="M108 100 C108,100 108,100 108,100 C108,100 81.09,26.12 81.09,26.12 C81.09,26.12 81.09,26.12 81.09,26.12 " keyPoints="0;0;1;1" keySplines="0.167 0.167 0.833 0.833;0.167 0.167 0.833 0.833;0 0 0 0" calcMode="spline"/><animateMotion repeatCount="indefinite" dur="1s" begin="0s" xlink:href="#_R_G_L_3_G_D_5_P_0_G_0_T_0" fill="freeze" keyTimes="0;0.5;0.6;1" path="M108 100 C108,100 108,100 108,100 C108,100 45.28,61.66 45.28,61.66 C45.28,61.66 45.28,61.66 45.28,61.66 " keyPoints="0;0;1;1" keySplines="0.167 0.167 0.833 0.833;0.167 0.167 0.833 0.833;0 0 0 0" calcMode="spline"/><animateMotion repeatCount="indefinite" dur="1s" begin="0s" xlink:href="#_R_G_L_3_G_D_6_P_0_G_0_T_0" fill="freeze" keyTimes="0;0.4333333;0.5333333;1" path="M108 100 C108,100 108,100 108,100 C108,100 35.68,98.37 35.68,98.37 C35.68,98.37 35.68,98.37 35.68,98.37 " keyPoints="0;0;1;1" keySplines="0.167 0.167 0.833 0.833;0.167 0.167 0.833 0.833;0 0 0 0" calcMode="spline"/><animate repeatCount="indefinite" dur="1s" begin="0s" xlink:href="#_R_G_L_3_G_M" fill="freeze" attributeName="opacity" from="0" to="1" keyTimes="0;0.4333333;0.4333367;1" values="0;0;1;1" keySplines="0 0 0 0;0 0 0 0;0 0 0 0" calcMode="spline"/><animateMotion repeatCount="indefinite" dur="1s" begin="0s" xlink:href="#_R_G_L_2_G_D_0_P_0_G_0_T_0" fill="freeze" keyTimes="0;0.2;0.3333333;1" path="M108.25 52.12 C108.25,52.12 108.25,52.12 108.25,52.12 C108.25,52.12 108.25,152.12 108.25,152.12 C108.25,152.12 108.25,152.12 108.25,152.12 " keyPoints="0;0;1;1" keySplines="0.167 0.167 0.833 0.833;0.167 0.167 0.833 0.833;0 0 0 0" calcMode="spline"/><animateMotion repeatCount="indefinite" dur="1s" begin="0s" xlink:href="#_R_G_L_2_G_D_0_P_0_G_0_T_0" fill="freeze" keyTimes="0;0.2;0.3333333;1" path="M108.25 52.12 C108.25,52.12 108.25,52.12 108.25,52.12 C108.25,52.12 108.25,152.12 108.25,152.12 C108.25,152.12 108.25,152.12 108.25,152.12 " keyPoints="0;0;1;1" keySplines="0.167 0.167 0.833 0.833;0.167 0.167 0.833 0.833;0 0 0 0" calcMode="spline"/><animateMotion repeatCount="indefinite" dur="1s" begin="0s" xlink:href="#_R_G_L_2_G_D_0_P_0_G_0_T_0" fill="freeze" keyTimes="0;0.2;0.3333333;1" path="M108.25 52.12 C108.25,52.12 108.25,52.12 108.25,52.12 C108.25,52.12 108.25,152.12 108.25,152.12 C108.25,152.12 108.25,152.12 108.25,152.12 " keyPoints="0;0;1;1" keySplines="0.167 0.167 0.833 0.833;0.167 0.167 0.833 0.833;0 0 0 0" calcMode="spline"/><animate repeatCount="indefinite" dur="1s" begin="0s" xlink:href="#_R_G_L_2_G_M" fill="freeze" attributeName="opacity" from="1" to="0" keyTimes="0;0.3333333;0.3333334;1" values="1;1;0;0" keySplines="0 0 0 0;0 0 0 0;0 0 0 0" calcMode="spline"/><animateMotion repeatCount="indefinite" dur="1s" begin="0s" xlink:href="#_R_G_L_1_G_D_0_P_0_G_0_T_0" fill="freeze" keyTimes="0;0.2;1" path="M112.87 37.95 C112.87,37.95 112.87,100 112.87,100 C112.87,100 112.87,100 112.87,100 " keyPoints="0;1;1" keySplines="0.167 0.167 0.833 0.833;0 0 0 0" calcMode="spline"/><animateMotion repeatCount="indefinite" dur="1s" begin="0s" xlink:href="#_R_G_L_1_G_D_1_P_0_G_0_T_0" fill="freeze" keyTimes="0;0.2;1" path="M140.11 32.5 C140.11,32.5 140.11,100 140.11,100 C140.11,100 140.11,100 140.11,100 " keyPoints="0;1;1" keySplines="0.167 0.167 0.833 0.833;0 0 0 0" calcMode="spline"/><animateMotion repeatCount="indefinite" dur="1s" begin="0s" xlink:href="#_R_G_L_1_G_D_2_P_0_G_0_T_0" fill="freeze" keyTimes="0;0.2;1" path="M122.41 8.96 C122.41,8.96 122.41,100 122.41,100 C122.41,100 122.41,100 122.41,100 " keyPoints="0;1;1" keySplines="0.167 0.167 0.833 0.833;0 0 0 0" calcMode="spline"/><animate repeatCount="indefinite" dur="1s" begin="0s" xlink:href="#_R_G_L_1_G_M" fill="freeze" attributeName="opacity" from="1" to="0" keyTimes="0;0.2;0.2;1" values="1;1;0;0" keySplines="0 0 0 0;0 0 0 0;0 0 0 0" calcMode="spline"/><animate repeatCount="indefinite" dur="1s" begin="0s" xlink:href="#_R_G_L_0_G_D_0_P_0" fill="freeze" attributeName="fill" from="#ffffff" to="#ffffff" keyTimes="0;0.9666667;1" values="#ffffff;#0f0f0f;#0f0f0f" keySplines="0.167 0.167 0.833 0.833;0 0 0 0" calcMode="spline"/><animate repeatCount="indefinite" dur="1s" begin="0s" xlink:href="#_R_G_L_0_G_D_1_P_0" fill="freeze" attributeName="fill" from="#ffffff" to="#ffffff" keyTimes="0;0.9666667;1" values="#ffffff;#0f0f0f;#0f0f0f" keySplines="0.167 0.167 0.833 0.833;0 0 0 0" calcMode="spline"/><animate repeatCount="indefinite" dur="1s" begin="0s" xlink:href="#_R_G_L_0_G_D_2_P_0" fill="freeze" attributeName="fill" from="#ffffff" to="#ffffff" keyTimes="0;0.9666667;1" values="#ffffff;#0f0f0f;#0f0f0f" keySplines="0.167 0.167 0.833 0.833;0 0 0 0" calcMode="spline"/><animate attributeType="XML" attributeName="opacity" dur="1s" from="0" to="1" xlink:href="#time_group"/></defs><g id="_R_G"><g id="_R_G_L_4_G_M"><g id="_R_G_L_4_G" transform=" translate(108, 100) translate(-108.249, -52.116)"><g id="_R_G_L_4_G_D_0_P_0_G_0_T_0"><g id="_R_G_L_4_G_D_0_P_0_G_0_T_0"><g id="_R_G_L_4_G_D_0_P_0_G_0_T_0"><path id="_R_G_L_4_G_D_0_P_0" fill="#000000" fill-opacity="1" fill-rule="nonzero" d=" M0 -51.87 C-28.64,-51.87 -51.87,-28.64 -51.87,0 C-51.87,28.65 -28.64,51.87 0,51.87 C28.65,51.87 51.87,28.65 51.87,0 C51.87,-28.64 28.65,-51.87 0,-51.87z  M-45.53 -0.6 C-45.52,-1.01 -45.51,-1.41 -45.49,-1.82 C-45.47,-2.37 -45.01,-2.8 -44.45,-2.77 C-43.9,-2.75 -43.47,-2.29 -43.5,-1.74 C-43.51,-1.35 -43.52,-0.96 -43.53,-0.58 C-43.54,-0.03 -43.98,0.41 -44.53,0.41 C-44.53,0.41 -44.54,0.41 -44.54,0.41 C-45.09,0.4 -45.54,-0.05 -45.53,-0.6z  M-37.56 23.93 C-37.73,24.04 -37.92,24.09 -38.1,24.09 C-38.42,24.09 -38.73,23.93 -38.92,23.62 C-38.92,23.62 -38.06,23.11 -38.06,23.11 C-38.06,23.11 -38.95,23.57 -38.95,23.57 C-42.33,17.98 -44.44,11.88 -45.21,5.44 C-45.28,4.89 -44.88,4.4 -44.34,4.33 C-43.79,4.27 -43.29,4.66 -43.22,5.21 C-42.49,11.36 -40.47,17.19 -37.24,22.53 C-36.95,23.01 -37.09,23.65 -37.56,23.93z "/></g></g></g></g></g><g id="_R_G_L_3_G_M"><g id="_R_G_L_3_G" transform=" translate(100.001, 105.391) translate(-100.25, -94.86)"><g id="_R_G_L_3_G_D_0_P_0_G_0_T_0"><path id="_R_G_L_3_G_D_0_P_0" fill="#000000" fill-opacity="1" fill-rule="nonzero" d=" M17.38 13.61 C17.38,13.61 -4.33,-13.61 -4.33,-13.61 C-4.33,-13.61 -17.38,11.71 -17.38,11.71 C-17.38,11.71 17.38,13.61 17.38,13.61z "/></g><g id="_R_G_L_3_G_D_1_P_0_G_0_T_0"><path id="_R_G_L_3_G_D_1_P_0" fill="#000000" fill-opacity="1" fill-rule="nonzero" d=" M16.78 -4.82 C16.78,-4.82 -16.78,-14.08 -16.78,-14.08 C-16.78,-14.08 -12.46,14.08 -12.46,14.08 C-12.46,14.08 16.78,-4.82 16.78,-4.82z "/></g><g id="_R_G_L_3_G_D_2_P_0_G_0_T_0"><path id="_R_G_L_3_G_D_2_P_0" fill="#000000" fill-opacity="1" fill-rule="nonzero" d=" M16.3 -16.24 C16.3,-16.24 -16.3,-4 -16.3,-4 C-16.3,-4 3.75,16.24 3.75,16.24 C3.75,16.24 16.3,-16.24 16.3,-16.24z "/></g><g id="_R_G_L_3_G_D_3_P_0_G_0_T_0"><path id="_R_G_L_3_G_D_3_P_0" fill="#000000" fill-opacity="1" fill-rule="nonzero" d=" M5.12 -16.82 C5.12,-16.82 -14.06,12.24 -14.06,12.24 C-14.06,12.24 14.06,16.83 14.06,16.83 C14.06,16.83 5.12,-16.82 5.12,-16.82z "/></g><g id="_R_G_L_3_G_D_4_P_0_G_0_T_0"><path id="_R_G_L_3_G_D_4_P_0" fill="#000000" fill-opacity="1" fill-rule="nonzero" d=" M-13.5 -17.39 C-13.5,-17.39 -11.93,17.39 -11.93,17.39 C-11.93,17.39 13.51,4.58 13.51,4.58 C13.51,4.58 -13.5,-17.39 -13.5,-17.39z "/></g><g id="_R_G_L_3_G_D_5_P_0_G_0_T_0"><path id="_R_G_L_3_G_D_5_P_0" fill="#000000" fill-opacity="1" fill-rule="nonzero" d=" M-17.38 -13.61 C-17.38,-13.61 4.33,13.61 4.33,13.61 C4.33,13.61 17.38,-11.71 17.38,-11.71 C17.38,-11.71 -17.38,-13.61 -17.38,-13.61z "/></g><g id="_R_G_L_3_G_D_6_P_0_G_0_T_0"><path id="_R_G_L_3_G_D_6_P_0" fill="#000000" fill-opacity="1" fill-rule="nonzero" d=" M-16.78 4.82 C-16.78,4.82 16.78,14.08 16.78,14.08 C16.78,14.08 12.46,-14.08 12.46,-14.08 C12.46,-14.08 -16.78,4.82 -16.78,4.82z "/></g></g></g><g id="_R_G_L_2_G_M"><g id="_R_G_L_2_G" transform=" translate(100.001, 124.067) translate(-100.25, -76.183)"><g id="_R_G_L_2_G_D_0_P_0_G_0_T_0"><g id="_R_G_L_2_G_D_0_P_0_G_0_T_0"><g id="_R_G_L_2_G_D_0_P_0_G_0_T_0"><path id="_R_G_L_2_G_D_0_P_0" fill="#ffffff" fill-opacity="1" fill-rule="nonzero" d=" M0 -51.87 C-28.64,-51.87 -51.87,-28.64 -51.87,0 C-51.87,28.65 -28.64,51.87 0,51.87 C28.65,51.87 51.87,28.65 51.87,0 C51.87,-28.64 28.65,-51.87 0,-51.87z  M-45.53 -0.6 C-45.52,-1.01 -45.51,-1.41 -45.49,-1.82 C-45.47,-2.37 -45.01,-2.8 -44.45,-2.77 C-43.9,-2.75 -43.47,-2.29 -43.5,-1.74 C-43.51,-1.35 -43.52,-0.96 -43.53,-0.58 C-43.54,-0.03 -43.98,0.41 -44.53,0.41 C-44.53,0.41 -44.54,0.41 -44.54,0.41 C-45.09,0.4 -45.54,-0.05 -45.53,-0.6z  M-37.56 23.93 C-37.73,24.04 -37.92,24.09 -38.1,24.09 C-38.42,24.09 -38.73,23.93 -38.92,23.62 C-38.92,23.62 -38.06,23.11 -38.06,23.11 C-38.06,23.11 -38.95,23.57 -38.95,23.57 C-42.33,17.98 -44.44,11.88 -45.21,5.44 C-45.28,4.89 -44.88,4.4 -44.34,4.33 C-43.79,4.27 -43.29,4.66 -43.22,5.21 C-42.49,11.36 -40.47,17.19 -37.24,22.53 C-36.95,23.01 -37.09,23.65 -37.56,23.93z "/></g></g></g></g></g><g id="_R_G_L_1_G_M"><g id="_R_G_L_1_G" transform=" translate(100.001, 131.375) translate(-100.25, -68.876)"><g id="_R_G_L_1_G_D_0_P_0_G_0_T_0"><path id="_R_G_L_1_G_D_0_P_0" fill="#ffffff" fill-opacity="1" fill-rule="nonzero" d=" M0 8.11 C0,8.11 -1.12,3.27 -2.45,1.94 C-3.64,0.76 -8.1,0 -8.1,0 C-8.1,0 -3.64,-0.76 -2.45,-1.94 C-1.12,-3.27 0,-8.1 0,-8.1 C0,-8.1 1.12,-3.27 2.45,-1.94 C3.64,-0.76 8.1,0 8.1,0 C8.1,0 3.64,0.76 2.45,1.94 C1.12,3.27 0,8.11 0,8.11z "/></g><g id="_R_G_L_1_G_D_1_P_0_G_0_T_0"><path id="_R_G_L_1_G_D_1_P_0" fill="#ffffff" fill-opacity="1" fill-rule="nonzero" d=" M0 5.47 C0,5.47 -0.75,2.21 -1.65,1.31 C-2.45,0.51 -5.47,0 -5.47,0 C-5.47,0 -2.45,-0.51 -1.65,-1.31 C-0.75,-2.21 0,-5.47 0,-5.47 C0,-5.47 0.75,-2.21 1.65,-1.31 C2.46,-0.51 5.47,0 5.47,0 C5.47,0 2.46,0.51 1.65,1.31 C0.75,2.21 0,5.47 0,5.47z "/></g><g id="_R_G_L_1_G_D_2_P_0_G_0_T_0"><path id="_R_G_L_1_G_D_2_P_0" fill="#ffffff" fill-opacity="1" fill-rule="nonzero" d=" M0 8.71 C0,8.71 -1.2,3.51 -2.63,2.09 C-3.91,0.81 -8.71,0 -8.71,0 C-8.71,0 -3.91,-0.81 -2.63,-2.09 C-1.2,-3.51 0,-8.71 0,-8.71 C0,-8.71 1.2,-3.51 2.63,-2.09 C3.91,-0.81 8.71,0 8.71,0 C8.71,0 3.91,0.81 2.63,2.09 C1.2,3.51 0,8.71 0,8.71z "/></g></g></g><g id="_R_G_L_0_G" transform=" translate(100, 149.877) translate(-100.25, -50.374)"><path id="_R_G_L_0_G_D_0_P_0" fill="#ffffff" fill-opacity="1" fill-rule="nonzero" d=" M0.25 19.81 C5.35,8.25 18.43,0.25 30.37,7.37 C34,9.44 37.25,12.51 38.65,16.58 C38.65,16.58 37.14,16.13 37.14,16.13 C48.7,7.8 58.16,17.89 61.2,29.11 C56.75,18.87 48.1,9.35 37.27,18.48 C35.59,12.56 29.92,8.41 24.16,6.86 C14.27,4.51 5.09,11.61 0.25,19.81z "/><path id="_R_G_L_0_G_D_1_P_0" fill="#ffffff" fill-opacity="1" fill-rule="nonzero" d=" M19.57 43.01 C23.83,34.26 34.55,29.6 43.95,31.9 C47.1,32.62 50.17,34.03 52.61,36.3 C52.61,36.3 51.43,36.53 51.43,36.53 C52.83,33.47 55.83,31.73 58.81,30.61 C64.78,28.5 71.81,29.24 76.92,33.12 C79.46,35.04 81.52,37.72 82.42,40.9 C82.42,40.9 80.56,40.84 80.56,40.84 C80.96,39.68 81.78,38.79 82.68,38.17 C89.33,34 98.01,40.18 98.86,47.32 C98.86,47.32 97.19,46.93 97.19,46.93 C100.92,41.72 107.58,39.32 113.8,39.95 C120.01,40.58 125.69,44.37 128.92,49.65 C128.92,49.65 127.98,49.55 127.98,49.55 C135.01,43.18 148.19,47.05 153.17,54.31 C148.07,47.73 135.42,44.3 128.85,50.38 C128.85,50.38 128.32,50.94 128.32,50.94 C128.32,50.94 127.9,50.28 127.9,50.28 C120.93,39.35 104.16,38.14 97.39,49.87 C97.39,49.87 97.03,47.61 97.03,47.61 C96.48,44.17 94.15,41.04 90.98,39.66 C88.25,38.33 83.68,38.41 82.4,41.47 C82.4,41.47 81.37,44.42 81.37,44.42 C81.37,44.42 80.55,41.41 80.55,41.41 C79.82,38.72 78.04,36.34 75.79,34.6 C71.22,31.05 64.79,30.35 59.37,32.22 C56.8,33.12 53.99,34.61 52.78,37.12 C52.78,37.12 52.34,38.08 52.34,38.08 C52.34,38.08 51.6,37.36 51.6,37.36 C42.32,28.62 25.61,32.01 19.57,43.01z "/><path id="_R_G_L_0_G_D_2_P_0" fill="#ffffff" fill-opacity="1" fill-rule="nonzero" d=" M192.3 29.08 C186.74,27.9 182.89,30.79 182.87,36.53 C182.87,36.82 182.86,37.11 182.87,37.41 C180.21,35.4 176.54,34.7 173.46,36.04 C169.95,37.84 168.04,41.12 166.52,44.54 C162.36,43.51 158.14,42.68 153.83,42.91 C149.82,43.29 145.57,44.65 142.19,47.03 C142.58,47.13 142.96,47.25 143.35,47.38 C146.57,45.61 150.34,44.68 153.91,44.46 C158.25,44.42 162.63,45.47 166.81,46.59 C166.81,46.59 167.64,46.82 167.64,46.82 C167.64,46.82 167.97,46 167.97,46 C169.46,42.64 171.66,38.48 175.4,37.45 C178.29,36.87 181.47,38.03 183.32,40.32 C183.32,40.32 185.93,43.54 185.93,43.54 C185.07,40.46 183.93,36.76 184.91,33.56 C186.14,29.28 191.72,29.27 195.11,30.95 C197.01,31.88 198.73,33.24 200.25,34.79 C198.28,32.18 195.56,29.9 192.3,29.08z "/></g></g><g id="time_group"/>
</svg>