<?xml version="1.0" encoding="UTF-8"?>
<svg xmlns="http://www.w3.org/2000/svg">
    <symbol id="darkModeMoon">
        <path d="m145.04,163.43c-32.86-.48-59.48-27.82-59.1-60.69.33-29.38,21.79-53.68,49.89-58.44,2.12-.36,2.28-3.32.2-3.9-7.53-2.12-15.53-3.14-23.81-2.85-39.94,1.4-72.59,33.5-74.62,73.41-2.27,44.64,33.25,81.55,77.4,81.55,27.11,0,50.95-13.92,64.8-35,1.16-1.77-.91-3.88-2.72-2.78-9.31,5.67-20.29,8.88-32.03,8.71ZM50.88,89.5c.07-.18.14-.36.22-.54.28-.69,1.02-1.13,1.75-.96.92.22,1.4,1.19,1.05,2.03l-.27.66c-.23.59-.8.95-1.4.95-.25,0-.5-.06-.73-.19-.67-.38-.91-1.24-.62-1.96Zm4.32,56.85c-.23.11-.47.17-.7.17-.53,0-1.03-.28-1.29-.79l-.06-.12c-4.76-9.61-7.18-19.9-7.18-30.56,0-4.43.43-8.88,1.28-13.24.16-.81.94-1.35,1.76-1.18.81.16,1.34.95,1.18,1.76-.81,4.17-1.23,8.43-1.23,12.67,0,10.19,2.31,20.03,6.87,29.24.37.74.09,1.69-.65,2.06Z" fill="#fff"/>
    </symbol>
</svg>