<?xml version="1.0" encoding="UTF-8"?>
<svg xmlns="http://www.w3.org/2000/svg">
    <symbol id="lightModeSun">
        <path id="b" d="m115,65c-27.61,0-50,22.39-50,50s22.39,50,50,50,50-22.39,50-50-22.39-50-50-50Zm-26.03,80.19c-.3.32-.7.48-1.1.48-.37,0-.73-.13-1.02-.4l-.08-.08c-8.33-7.79-13.1-18.79-13.1-30.19,0-9.3,3.18-18.42,8.95-25.68.52-.65,1.46-.76,2.11-.24.65.52.76,1.46.24,2.11-5.35,6.73-8.3,15.19-8.3,23.81,0,10.57,4.43,20.78,12.15,28l.08.08c.61.56.64,1.51.08,2.12Zm9.24-64.66c-.29.14-.57.28-.85.43-.22.11-.46.17-.69.17-.54,0-1.07-.3-1.33-.81-.38-.74-.09-1.64.64-2.02.3-.16.61-.31.92-.46.74-.36,1.64-.06,2.01.69.36.74.06,1.64-.69,2.01Z" fill="#0f0f0f"/>
        <path d="m117.53,213.52l12.49-34.26c.47-1.3-.79-2.59-2.53-2.59h-24.99c-1.74,0-3.01,1.29-2.53,2.59l12.49,34.26c.72,1.98,4.34,1.98,5.06,0Z" fill="#0f0f0f"/>
        <path d="m48.16,186.69l32.93-15.37c1.34-.62,1.68-2.01.74-2.97l-17.85-18.19c-1.27-1.29-3.89-.97-4.58.56l-15.08,33.57c-.81,1.8,1.74,3.39,3.85,2.41Z" fill="#0f0f0f"/>
        <path d="m16.47,116.94l34.35,13.02c1.75.66,3.79-.32,3.79-1.83v-26.03c0-1.5-2.04-2.49-3.79-1.83l-34.35,13.02c-1.96.74-1.96,2.91,0,3.65Z" fill="#0f0f0f"/>
        <path d="m44.31,45.93l15.08,33.57c.69,1.53,3.31,1.86,4.58.56l17.85-18.19c.94-.96.6-2.35-.74-2.97l-32.93-15.37c-2.11-.98-4.65.61-3.85,2.41Z" fill="#0f0f0f"/>
        <path d="m112.46,16.5l-12.34,34.83c-.46,1.29.8,2.57,2.54,2.57h24.68c1.74,0,3-1.28,2.54-2.57l-12.34-34.83c-.71-2-4.37-2-5.07,0Z" fill="#0f0f0f"/>
        <path d="m181.84,43.53l-32.93,15.37c-1.34.62-1.68,2.01-.74,2.97l17.85,18.19c1.27,1.29,3.89.97,4.58-.56l15.08-33.57c.81-1.8-1.74-3.39-3.85-2.41Z" fill="#0f0f0f"/>
        <path d="m213.53,113.28l-34.35-13.02c-1.75-.66-3.79.32-3.79,1.83v26.03c0,1.5,2.04,2.49,3.79,1.83l34.35-13.02c1.96-.74,1.96-2.91,0-3.65Z" fill="#0f0f0f"/>
        <path d="m185.69,184.29l-15.08-33.57c-.69-1.53-3.31-1.86-4.58-.56l-17.85,18.19c-.94.96-.6,2.35.74,2.97l32.93,15.37c2.11.98,4.65-.61,3.85-2.41Z" fill="#0f0f0f"/>
    </symbol>
</svg>