<?xml version="1.0" encoding="UTF-8"?>
<svg xmlns="http://www.w3.org/2000/svg">
    <symbol id="logoMark">
        <path d="m220.44,60.28c-50.99-16.45-107.47,5.35-134.31,51.83-9.71,16.82-14.65,35.11-15.26,53.29-8.43-10.51-20.1-18.24-33.27-21.76,2.93-16.89,8.82-33.54,17.87-49.23,17.25-29.89,44.5-53.06,76.72-65.26,31.76-12.02,66.96-12.93,99.11-2.56,7.86,2.54,16.57-.83,20.72-8l10.73-18.58,30.66,17.7-10.73,18.58c-12.43,21.53-38.6,31.62-62.24,23.99Zm31.6,259.96l10.73,18.58,30.66-17.7-10.73-18.58c-4.14-7.17-2.7-16.4,3.43-21.94,25.06-22.66,41.87-53.6,47.33-87.11,5.55-34-.9-69.19-18.16-99.07-9.06-15.68-20.54-29.12-33.7-40.09-9.53,9.55-21.97,15.89-35.46,17.95,15.43,9.61,28.79,23.03,38.5,39.85,26.83,46.48,17.47,106.3-22.26,142.23-18.42,16.66-22.77,44.37-10.34,65.9ZM0,151.71v35.4s21.46,0,21.46,0c8.28,0,15.55,5.86,17.29,13.94,7.09,33.03,25.48,63.05,51.77,84.55,26.67,21.81,60.37,33.81,94.88,33.81,18.11,0,35.48-3.23,51.57-9.13-3.53-13.17-2.68-27.14,2.21-39.69-16.05,8.56-34.35,13.43-53.78,13.43-53.67,0-100.79-38.02-112.04-90.4-5.22-24.28-27.04-41.9-51.9-41.9H0Zm185.4-39.6c-31.6,0-57.3,25.7-57.3,57.3s25.7,57.3,57.3,57.3c31.6,0,57.3-25.7,57.3-57.3,0-31.6-25.7-57.3-57.3-57.3m0-35.4c51.2,0,92.7,41.5,92.7,92.7,0,51.2-41.5,92.7-92.7,92.7-51.2,0-92.7-41.5-92.7-92.7,0-51.2,41.5-92.7,92.7-92.7h0Z"/>
    </symbol>
</svg>