<?xml version="1.0" encoding="UTF-8"?>
<svg xmlns="http://www.w3.org/2000/svg">
    <symbol id="logoType">
        <path d="m352.17,86.64c-27.45-8.85-57.86,2.88-72.31,27.91-5.23,9.06-7.89,18.9-8.22,28.69-4.54-5.66-10.82-9.82-17.91-11.72,1.58-9.09,4.75-18.06,9.62-26.5,9.29-16.09,23.96-28.57,41.31-35.14,17.1-6.47,36.05-6.96,53.36-1.38,4.23,1.37,8.92-.45,11.15-4.31l5.78-10.01,16.51,9.53-5.78,10.01c-6.69,11.59-20.78,17.02-33.51,12.92Zm17.02,139.96l5.78,10.01,16.51-9.53-5.78-10.01c-2.23-3.86-1.45-8.83,1.85-11.81,13.49-12.2,22.54-28.86,25.48-46.9,2.99-18.31-.48-37.25-9.77-53.34-4.88-8.44-11.06-15.68-18.14-21.59-5.13,5.14-11.83,8.55-19.09,9.66,8.31,5.18,15.5,12.4,20.73,21.45,14.45,25.02,9.41,57.23-11.99,76.58-9.92,8.97-12.26,23.89-5.57,35.48Zm-135.7-90.74v19.06s11.55,0,11.55,0c4.46,0,8.37,3.16,9.31,7.5,3.82,17.78,13.72,33.95,27.88,45.52,14.36,11.74,32.5,18.21,51.08,18.21,9.75,0,19.1-1.74,27.76-4.92-1.9-7.09-1.44-14.61,1.19-21.37-8.64,4.61-18.5,7.23-28.95,7.23-28.9,0-54.27-20.47-60.32-48.67-2.81-13.07-14.56-22.56-27.94-22.56h-11.55Zm99.82-21.32c-17.01,0-30.85,13.84-30.85,30.85s13.84,30.85,30.85,30.85c17.01,0,30.85-13.84,30.85-30.85,0-17.01-13.84-30.85-30.85-30.85m0-19.06c27.56,0,49.91,22.35,49.91,49.91s-22.35,49.91-49.91,49.91c-27.56,0-49.91-22.35-49.91-49.91,0-27.56,22.35-49.91,49.91-49.91h0Z"/>
        <path d="m196.05,236.61c-9.71,0-17.63-8.04-17.63-17.9V70.06l-43.71,129.74c-6.26,19.64-18.4,23.8-27.48,23.8-20.51,0-26.17-17.37-28.3-23.9L35.28,70.37l-.02,148.34c0,8.61-6.64,17.9-17.37,17.9-10.03,0-17.89-7.87-17.89-17.9V28.06C0,14.46,10.01,0,28.57,0c13.39,0,22.73,7.47,27.73,22.21l50.53,150.89L157.36,22.25c4.39-13.68,14.94-22.25,27.49-22.25,16.29,0,28.58,12.07,28.58,28.06v190.65c0,8.61-6.65,17.9-17.38,17.9Z"/>
        <path d="m556.72,236.61c-9.27,0-17.11-7.95-17.11-17.37v-98.99c0-16.54-13.07-31.07-27.95-31.07-23.28,0-37.17,22.69-40.19,28.21v101.85c0,9.59-7.91,17.37-17.64,17.37-10.39,0-17.37-8.97-17.37-17.37V90.82c-.06-1.34-.58-4.79-1.07-8.25-.67-4.81-1.27-9.63-1.27-11.28,0-9.42,7.68-17.09,17.12-17.09,12.1,0,15.97,8.93,17.49,14.97,12.44-9.78,27.14-14.97,42.94-14.97,30.39,0,62.7,23.16,62.7,66.07v98.99c0,9.74-7.74,17.37-17.64,17.37Z"/>
        <path d="m725.87,236.87c-9.2,0-14.32-5.75-17.33-12.73-9.94,6.94-23.18,12.73-43.1,12.73-35.29,0-71.03-21.08-71.03-61.38,0-36.33,31.21-63.73,72.59-63.73,5.56,0,19.68,0,36.54,7.44-.16-17.54-15.78-29.76-38.1-29.76-5.13,0-22.81.91-34.92,12.6-3.03,2.59-7.21,6.15-13.53,6.15-8.23,0-17.11-6.64-17.11-17.37,0-18.83,31.6-36.63,65.03-36.63s73.9,17.65,73.9,67.38v69.8c0,7.85,1.48,15.99,2.36,20.15.98,3.35,1.27,4.71,1.27,7.72,0,10.05-7.13,17.63-16.59,17.63Zm-57.04-90.37c-27.25,0-39.67,15.16-39.67,29.25,0,17.33,17.86,26.38,35.5,26.38,25.8,0,36.68-16.67,38.89-20.64v-23.16c-3.46-3.46-15.03-11.83-34.72-11.83Z"/>
        <path d="m831.72,236.61c-44.01,0-69.21-41.3-69.21-52.54,0-10.01,8.26-18.16,18.41-18.16,11.72,0,15.54,9.14,16.8,12.13,1.66,3.52,12.14,23.29,34.25,23.29,12.72,0,26.4-7.04,26.4-22.48,0-6.62,0-13.45-30.86-20.4-29.27-6.45-56.41-17.09-56.41-50.97,0-30.39,24.72-53.3,57.49-53.3,39.45,0,61.13,32.6,61.13,43.42,0,8.55-6.17,17.63-17.63,17.63-8.76,0-12.68-4.69-15.37-9.27-7-11.2-16.6-16.78-29.17-16.78-19.17,0-20.66,13.21-20.66,17.26,0,6.34,0,11.81,28.37,17.77,30.48,6.6,58.63,17.77,58.63,54.64,0,33.47-26.15,57.75-62.18,57.75Z"/>
    </symbol>
</svg>