<?xml version="1.0" encoding="UTF-8"?>
<svg xmlns="http://www.w3.org/2000/svg" viewBox="0 0 340 175.45">
    <symbol id="welcomeCat">
        <path d="m170,156.82c93.89,0,170-2.13,170-4.75s-76.11-4.75-170-4.75S0,149.45,0,152.07s76.11,4.75,170,4.75Z" fill="#fcf5f5" />
        <path d="m320.99,100.62v-5.6h-28.04v56.35h28.04v-5.6h-22.43v-19.95h22.43v-5.6h-22.43v-19.6h22.43Z" fill="#ff4185" />
        <path d="m274.38,95.37v1.29l-15.15,15.13-14.82-14.8v-1.8h-5.61v56h5.61v-46.28l14.78,14.76.03-.03.03.03,15.11-15.09v46.79h5.61v-56h-5.61Z" fill="#483d56" />
        <path d="m197.63,95.02v56.35h28.04v-56.35h-28.04Zm22.43,50.75h-16.82v-45.15h16.82v45.15Z" fill="#ff4185" />
        <path d="m183.96,100.62v-5.6h-28.04v56.35h28.04v-5.6h-22.43v-45.15h22.43Z" fill="#483d56" />
        <path d="m119.83,145.77v-50.4h-5.61v56h28.04v-5.6h-22.43Z" fill="#ff4185" />
        <path d="m101.61,100.62v-5.6h-28.04v56.35h28.04v-5.6h-22.43v-19.95h22.43v-5.6h-22.43v-19.6h22.43Z" fill="#483d56" />
        <path d="m54.64,95.37v46.28l-14.78-14.76-.03.03-.03-.03-15.11,15.09v-46.79h-5.61v56h5.61v-1.29l15.15-15.13,14.82,14.8v1.8h5.61v-56h-5.61Z" fill="#483d56" />
        <path d="m128.14,60.87c1.9,0,3.44-1.54,3.44-3.44s-1.54-3.44-3.44-3.44-3.44,1.54-3.44,3.44,1.54,3.44,3.44,3.44Z" fill="#ff4185" />
        <path d="m43.24,99.06c1.9,0,3.44-1.54,3.44-3.44s-1.54-3.44-3.44-3.44-3.44,1.54-3.44,3.44,1.54,3.44,3.44,3.44Z" fill="#ff4185" />
        <path d="m111.31,175.45c1.9,0,3.44-1.54,3.44-3.44s-1.54-3.44-3.44-3.44-3.44,1.54-3.44,3.44,1.54,3.44,3.44,3.44Z" fill="#ff4185" />
        <path d="m197.74,71.18c1.9,0,3.44-1.54,3.44-3.44s-1.54-3.44-3.44-3.44-3.44,1.54-3.44,3.44,1.54,3.44,3.44,3.44Z" fill="#ff4185" />
        <path d="m299.08,172.39c1.9,0,3.44-1.54,3.44-3.44s-1.54-3.44-3.44-3.44-3.44,1.54-3.44,3.44,1.54,3.44,3.44,3.44Z" fill="#ff4185" />
        <path d="m302.52,82.26c1.9,0,3.44-1.54,3.44-3.44s-1.54-3.44-3.44-3.44-3.44,1.54-3.44,3.44,1.54,3.44,3.44,3.44Z" fill="#ff4185" />
        <path d="m258.93,144.13c1.9,0,3.44-1.54,3.44-3.44s-1.54-3.44-3.44-3.44-3.44,1.54-3.44,3.44,1.54,3.44,3.44,3.44Z" fill="#ff4185" />
        <path d="m294.7,50.01c-.49-.37-1.05-.64-1.64-.77-.6-.14-1.21-.15-1.81-.03-1.03.28-1.16,1.11-.3,1.85.41.35,9.91,8.74-6.01,19.93-4.07,2.86-6.97,5.5-9.02,7.87l-.93-2.99,7.16-3.29c.64-.29,1.13-.83,1.38-1.48.24-.66.22-1.38-.08-2.02-.29-.64-.83-1.13-1.49-1.37-.66-.24-1.39-.22-2.02.08l-6.53,3-.89-2.86-1.02-3.29c.31-.16.62-.31.92-.48,3.93-2.22,7.19-5.46,9.45-9.37,2.25-3.91,3.42-8.35,3.37-12.86-.05-4.51-1.3-8.93-3.64-12.79.23-.29.39-.62.48-.98.09-.36.11-.73.04-1.09l-1.44-8.46-1.44-8.46c-.08-.46-.27-.89-.57-1.24-.3-.36-.68-.63-1.12-.79-.43-.16-.9-.21-1.36-.13-.46.08-.89.27-1.24.57l-6.62,5.48-3.99,3.3c-.99-.17-1.98-.27-2.98-.33.23-2.03.7-4.04,1.43-5.97-.17.35-.33.71-.49,1.07-.68,1.57-1.18,3.2-1.52,4.87-.74-.02-1.48-.02-2.22.02-.05-3.12.48-6.24,1.59-9.18-.17.35-.33.71-.49,1.07-1.12,2.61-1.78,5.38-1.97,8.19-.46.04-.93.08-1.39.15l-3.84-3.18-6.62-5.48c-.36-.3-.79-.49-1.24-.57-.46-.08-.93-.03-1.36.13s-.82.43-1.12.79c-.3.36-.49.79-.57,1.24l-1.44,8.46-1.44,8.46c-.08.44-.04.9.12,1.33-2.47,3.78-3.88,8.15-4.08,12.66-.2,4.51.81,8.99,2.92,12.97,2.12,3.99,5.27,7.33,9.12,9.69.36.22.72.42,1.09.62l-.93,3.31-.83,2.95-6.09-2.8c-.64-.29-1.36-.32-2.02-.08-.66.24-1.19.74-1.49,1.37-.29.64-.32,1.36-.08,2.02.24.66.74,1.19,1.37,1.48l6.86,3.15-2.84,10.07c-1.18,4.17.9,8.23,4.94,11.05v3.77c0,.35.07.69.2,1.01.13.32.33.61.57.86.25.25.54.44.86.57.32.13.67.2,1.01.2s.69-.07,1.01-.2c.32-.13.61-.33.86-.57.24-.24.44-.54.57-.86.13-.32.2-.66.2-1.01v-1.2c2.21.71,4.66,1.14,7.29,1.2.22,0,.43,0,.65,0s.43,0,.65,0c2.63-.06,5.09-.49,7.29-1.2v1.2c0,.35.07.69.2,1.01.13.32.33.61.57.86.25.25.54.44.86.57.32.13.67.2,1.01.2s.69-.07,1.01-.2c.32-.13.61-.33.86-.57.25-.24.44-.54.57-.86.13-.32.2-.66.2-1.01v-3.78c4.09-2.86,6.13-6.99,4.82-11.21l-.3-.96c1.68-3.06,5-6.94,11.43-11.46,17.97-12.62,6.08-22.77,5.56-23.2Z" fill="#483d56" />
        <path d="m259.52,67.42c-4.1-.07-8.11-1.14-11.69-3.1l-.93,3.31c3.86,2.32,8.27,3.57,12.77,3.62,4.51.05,8.94-1.1,12.85-3.33l-1.02-3.29c-3.7,1.9-7.81,2.87-11.98,2.8Z" fill="#6d3e5f" />
        <path d="m270.95,74.43l-.37-4.74-.37-4.74c-.02-.26-.11-.5-.25-.71-.15-.21-.34-.38-.58-.49-.23-.11-.49-.16-.74-.14-.26.02-.5.11-.71.25l-3.92,2.69-2.86,1.96c-.18-.21-.41-.39-.67-.5-.26-.12-.53-.18-.82-.18s-.56.06-.82.18c-.26.12-.48.29-.67.5l-2.86-1.96-3.92-2.69c-.21-.15-.46-.23-.71-.25-.26-.02-.51.03-.74.14-.23.11-.43.28-.58.49-.14.21-.23.46-.25.71l-.37,4.74-.37,4.74c-.02.26.03.51.14.74.11.23.28.43.49.57.21.15.46.23.71.25.26.02.51-.03.74-.14l4.29-2.04,3.53-1.68c.18.18.4.33.64.43.24.1.49.15.75.15s.51-.05.75-.15c.24-.1.45-.25.64-.43l3.53,1.68,4.29,2.04c.23.11.49.16.74.14.26-.02.5-.11.71-.25.21-.15.38-.34.49-.57.11-.23.16-.49.14-.74Z" fill="#ff4185" />
        <path d="m245.17,12c-.16,0-.31.03-.46.08-.22.08-.41.21-.55.39-.15.18-.24.39-.28.62l-1.75,10.26c-.04.23-.02.46.06.67.08.22.21.41.39.55.18.15.39.24.61.28.23.04.46.02.68-.06l9.77-3.62c.21-.08.41-.21.55-.39.15-.18.24-.39.28-.61.04-.23.02-.46-.06-.67-.08-.22-.22-.41-.39-.55l-8.03-6.64c-.23-.19-.53-.3-.83-.3Z" fill="#fcf5f5" />
        <path d="m275.61,12c-.3,0-.6.11-.83.3l-8.02,6.64c-.18.15-.31.34-.39.55-.08.22-.1.45-.06.67.04.23.14.44.28.61.15.18.34.31.55.39l9.77,3.62c.21.08.45.1.67.06.23-.04.44-.14.62-.28s.31-.34.39-.55c.08-.22.1-.45.06-.67l-1.75-10.26c-.04-.23-.13-.44-.28-.62-.15-.18-.34-.31-.55-.39-.15-.05-.3-.08-.46-.08Z" fill="#fcf5f5" />
        <path d="m259.95,42.18c-1.95,0-3.53,1.58-3.53,3.52s1.58,3.52,3.53,3.52,3.53-1.58,3.53-3.52-1.58-3.52-3.53-3.52Zm0,2.64c-1.3,0-2.35-.39-2.35-.88s1.05-.88,2.35-.88,2.35.39,2.35.88-1.05.88-2.35.88Z" fill="#fcf5f5" />
        <path d="m258.19,47.75h3.23v3.96c0,.21-.04.42-.12.62-.08.2-.2.37-.35.52-.15.15-.33.27-.52.35-.2.08-.41.12-.62.12-.43,0-.84-.17-1.14-.47-.3-.3-.47-.71-.47-1.14v-3.96Z" fill="#ff4185" />
        <path d="m255.25,42.76c.49,0,.88-.39.88-.88s-.39-.88-.88-.88-.88.39-.88.88.4.88.88.88Z" fill="#fcf5f5" />
        <path d="m264.66,42.76c.49,0,.88-.39.88-.88s-.39-.88-.88-.88-.88.39-.88.88.39.88.88.88Z" fill="#fcf5f5" />
        <path d="m112.8,60.45c-.26-.24-.55-.42-.88-.54-.33-.12-.67-.18-1.02-.16-.35.01-.69.1-1.01.24l-6.09,2.8-.83-2.95-.93-3.29c.37-.2.73-.4,1.09-.62,3.85-2.36,7-5.71,9.12-9.7,2.12-3.99,3.13-8.47,2.92-12.98-.21-4.51-1.62-8.88-4.09-12.66.15-.42.19-.88.12-1.33l-1.44-8.46-1.44-8.46c-.08-.46-.27-.89-.57-1.24-.3-.36-.68-.63-1.12-.79s-.91-.21-1.36-.13c-.46.08-.89.27-1.24.57l-6.62,5.48-3.84,3.18c-.46-.07-.93-.11-1.39-.15-.19-2.81-.85-5.58-1.97-8.19-.15-.36-.32-.72-.49-1.07,1.11,2.95,1.63,6.06,1.58,9.18-.74-.04-1.48-.04-2.22-.02-.34-1.66-.85-3.29-1.52-4.87-.15-.36-.32-.72-.49-1.07.72,1.93,1.19,3.94,1.43,5.97-1,.06-1.99.15-2.98.33l-3.99-3.3-6.62-5.48c-.36-.3-.79-.49-1.24-.57-.46-.08-.93-.03-1.36.13-.44.16-.82.43-1.12.79-.3.36-.49.79-.57,1.24l-1.44,8.46-1.44,8.46c-.06.36-.05.73.04,1.09.09.36.26.69.48.98-2.34,3.86-3.6,8.28-3.65,12.8s1.11,8.96,3.37,12.87c2.25,3.91,5.52,7.15,9.45,9.38.3.17.61.32.92.48l-1.01,3.28-.89,2.86-6.53-3c-.32-.15-.66-.23-1-.24-.35-.01-.69.04-1.02.16-.33.12-.63.3-.88.54-.26.24-.46.52-.61.84-.15.32-.23.66-.24,1-.01.35.04.69.16,1.02s.3.62.54.88c.24.25.52.46.84.61l7.16,3.29-1.88,6.06c-3.04-2.25-8.01-4.5-16.18-5.9-19.19-3.31-14.2-14.95-13.97-15.44.46-1.04,0-1.73-1.06-1.54-.59.15-1.15.42-1.63.8-.48.38-.87.86-1.15,1.4-.28.61-6.69,14.86,14.96,18.59,10.38,1.79,15.25,4.94,17.54,7.51-.36,3.6,1.64,7.02,5.17,9.49v3.78c0,.35.07.69.2,1.01.13.32.33.61.57.86.25.25.54.44.86.57.32.13.67.2,1.01.2s.69-.07,1.01-.2.61-.33.86-.57c.25-.25.44-.54.57-.86.13-.32.2-.66.2-1.01v-1.2c2.2.71,4.66,1.14,7.29,1.2.21,0,.43,0,.65,0s.43,0,.65,0c2.63-.06,5.09-.49,7.29-1.2v1.2c0,.35.07.69.2,1.01.13.32.33.61.57.86.25.25.54.44.86.57s.66.2,1.01.2.69-.07,1.01-.2c.32-.13.61-.33.86-.57.25-.25.44-.54.57-.86.13-.32.2-.66.2-1.01v-3.77c4.05-2.81,6.12-6.88,4.94-11.05l-2.84-10.07,6.86-3.15c.32-.14.6-.35.84-.61.24-.25.42-.55.54-.88.12-.33.18-.67.16-1.02-.01-.35-.1-.69-.24-1-.15-.32-.35-.6-.61-.84Z" fill="#483d56" />
        <path d="m90.35,59.65c-4.17.07-8.28-.9-11.99-2.8l-1.01,3.28c3.91,2.23,8.35,3.38,12.85,3.33,4.5-.05,8.91-1.3,12.77-3.62l-.93-3.29c-3.59,1.96-7.6,3.03-11.7,3.11Z" fill="#6d3e5f" />
        <path d="m103.86,4.52l-8.03,6.64c-.18.15-.31.34-.39.55-.08.22-.1.45-.06.67.04.23.14.44.28.61.15.18.34.31.55.39l9.77,3.62c.22.08.45.1.68.06.23-.04.44-.14.62-.28s.31-.34.39-.55c.08-.22.1-.45.06-.67l-1.75-10.26c-.04-.23-.13-.44-.28-.62-.15-.18-.34-.31-.55-.39-.15-.05-.3-.08-.46-.08-.3,0-.6.11-.83.3Z" fill="#fcf5f5" />
        <path d="m73.79,4.3c-.22.08-.41.21-.55.39-.15.18-.24.39-.28.62l-1.75,10.26c-.04.23-.02.46.06.67.08.22.22.41.39.55.18.15.39.24.62.28.23.04.46.02.67-.06l9.77-3.62c.22-.08.41-.21.55-.39.15-.18.24-.39.28-.61.04-.23.02-.46-.06-.67-.08-.22-.22-.41-.39-.55l-8.03-6.64c-.23-.19-.53-.3-.83-.3-.16,0-.31.03-.46.08Z" fill="#fcf5f5" />
        <path d="m89.91,34.39c-1.95,0-3.53,1.58-3.53,3.52s1.58,3.52,3.53,3.52,3.53-1.58,3.53-3.52-1.58-3.52-3.53-3.52Zm0,2.64c-1.3,0-2.35-.39-2.35-.88s1.05-.88,2.35-.88,2.35.39,2.35.88-1.05.88-2.35.88Z" fill="#fcf5f5" />
        <path d="m90.06,45.55c-.21,0-.42-.04-.62-.12-.2-.08-.37-.2-.52-.35-.15-.15-.27-.33-.35-.52-.08-.2-.12-.41-.12-.62v-3.96h3.23v3.96c0,.21-.04.42-.12.62-.08.2-.2.37-.35.52-.15.15-.33.27-.52.35-.2.08-.41.12-.62.12Z" fill="#ff4185" />
        <path d="m78.91,15.26l.37-4.73.37-4.74c.02-.26.11-.5.25-.71.15-.21.34-.38.58-.49.23-.11.49-.16.74-.14.26.02.5.11.71.25l3.92,2.69,2.86,1.96c.18-.21.41-.39.67-.5s.53-.18.82-.18.56.06.82.18.48.29.67.5l2.86-1.96,3.92-2.69c.21-.15.46-.23.71-.25.26-.02.51.03.74.14.23.11.43.28.58.49.15.21.23.46.25.71l.37,4.74.37,4.73c.02.26-.03.51-.14.74-.11.23-.28.43-.49.58-.21.15-.46.23-.71.25-.26.02-.51-.03-.74-.14l-4.29-2.05-3.53-1.68c-.18.18-.4.33-.64.43-.24.1-.49.15-.75.15s-.51-.05-.75-.15c-.24-.1-.45-.25-.64-.43l-3.53,1.68-4.29,2.05c-.23.11-.49.16-.74.14-.26-.02-.5-.11-.71-.25-.21-.15-.38-.34-.49-.58-.11-.23-.16-.49-.14-.74Z" fill="#ff4185" />
        <path d="m93.74,34.1c0,.49.39,0,.88,0s.88.49.88,0c0-.23-.09-.46-.26-.62-.17-.16-.39-.26-.62-.26s-.46.09-.62.26c-.17.16-.26.39-.26.62Z" fill="#fcf5f5" />
        <path d="m86.09,34.1c0,.49-.39,0-.88,0s-.88.49-.88,0c0-.23.09-.46.26-.62.17-.16.39-.26.62-.26s.46.09.62.26c.17.16.26.39.26.62Z" fill="#fcf5f5" />
    </symbol>
</svg>